<mxfile host="app.diagrams.net" modified="2024-07-20T10:38:33.132Z" agent="Mozilla/5.0 (Windows NT 10.0; Win64; x64; rv:128.0) Gecko/20100101 Firefox/128.0" etag="NNJUsXn2F6egwju6T0PK" version="24.7.2" type="device">
  <diagram name="Page-1" id="hzVWYcrNuvrzRGqRf3Bj">
    <mxGraphModel dx="2261" dy="746" grid="1" gridSize="10" guides="1" tooltips="1" connect="1" arrows="1" fold="1" page="1" pageScale="1" pageWidth="827" pageHeight="1169" math="0" shadow="0">
      <root>
        <mxCell id="0" />
        <mxCell id="1" parent="0" />
        <mxCell id="N91jm53emRYmfFJ_UL-y-16" style="edgeStyle=orthogonalEdgeStyle;rounded=0;orthogonalLoop=1;jettySize=auto;html=1;entryX=1;entryY=0.5;entryDx=0;entryDy=0;" edge="1" parent="1" source="N91jm53emRYmfFJ_UL-y-1" target="N91jm53emRYmfFJ_UL-y-4">
          <mxGeometry relative="1" as="geometry" />
        </mxCell>
        <mxCell id="N91jm53emRYmfFJ_UL-y-17" style="edgeStyle=orthogonalEdgeStyle;rounded=0;orthogonalLoop=1;jettySize=auto;html=1;entryX=0;entryY=0.5;entryDx=0;entryDy=0;" edge="1" parent="1" source="N91jm53emRYmfFJ_UL-y-1" target="N91jm53emRYmfFJ_UL-y-8">
          <mxGeometry relative="1" as="geometry" />
        </mxCell>
        <mxCell id="N91jm53emRYmfFJ_UL-y-1" value="Obergruppe 1&lt;br&gt;Feuerwehr" style="ellipse;whiteSpace=wrap;html=1;fillColor=#dae8fc;strokeColor=#6c8ebf;" vertex="1" parent="1">
          <mxGeometry x="240" y="160" width="160" height="120" as="geometry" />
        </mxCell>
        <mxCell id="N91jm53emRYmfFJ_UL-y-2" value="&lt;div&gt;Obergruppe 2&lt;/div&gt;&lt;div&gt;Polizei&lt;br&gt;&lt;/div&gt;" style="ellipse;whiteSpace=wrap;html=1;fillColor=#dae8fc;strokeColor=#6c8ebf;" vertex="1" parent="1">
          <mxGeometry x="560" y="160" width="170" height="120" as="geometry" />
        </mxCell>
        <mxCell id="N91jm53emRYmfFJ_UL-y-18" style="edgeStyle=orthogonalEdgeStyle;rounded=0;orthogonalLoop=1;jettySize=auto;html=1;entryX=1;entryY=0.5;entryDx=0;entryDy=0;" edge="1" parent="1" source="N91jm53emRYmfFJ_UL-y-4" target="N91jm53emRYmfFJ_UL-y-5">
          <mxGeometry relative="1" as="geometry" />
        </mxCell>
        <mxCell id="N91jm53emRYmfFJ_UL-y-19" style="edgeStyle=orthogonalEdgeStyle;rounded=0;orthogonalLoop=1;jettySize=auto;html=1;entryX=0;entryY=0.5;entryDx=0;entryDy=0;" edge="1" parent="1" source="N91jm53emRYmfFJ_UL-y-4" target="N91jm53emRYmfFJ_UL-y-7">
          <mxGeometry relative="1" as="geometry" />
        </mxCell>
        <mxCell id="N91jm53emRYmfFJ_UL-y-4" value="Untergruppe 1.1&lt;br&gt;Bundesland" style="ellipse;whiteSpace=wrap;html=1;fillColor=#d5e8d4;strokeColor=#82b366;" vertex="1" parent="1">
          <mxGeometry x="80" y="280" width="160" height="120" as="geometry" />
        </mxCell>
        <mxCell id="N91jm53emRYmfFJ_UL-y-20" style="edgeStyle=orthogonalEdgeStyle;rounded=0;orthogonalLoop=1;jettySize=auto;html=1;entryX=1;entryY=0.5;entryDx=0;entryDy=0;" edge="1" parent="1" source="N91jm53emRYmfFJ_UL-y-5" target="N91jm53emRYmfFJ_UL-y-6">
          <mxGeometry relative="1" as="geometry" />
        </mxCell>
        <mxCell id="N91jm53emRYmfFJ_UL-y-21" style="edgeStyle=orthogonalEdgeStyle;rounded=0;orthogonalLoop=1;jettySize=auto;html=1;entryX=0;entryY=0.5;entryDx=0;entryDy=0;" edge="1" parent="1" source="N91jm53emRYmfFJ_UL-y-5" target="N91jm53emRYmfFJ_UL-y-9">
          <mxGeometry relative="1" as="geometry" />
        </mxCell>
        <mxCell id="N91jm53emRYmfFJ_UL-y-5" value="&lt;div&gt;Untergruppe 1.1.1&lt;/div&gt;&lt;div&gt;Bezirk&lt;br&gt;&lt;/div&gt;" style="ellipse;whiteSpace=wrap;html=1;fillColor=#fff2cc;strokeColor=#d6b656;" vertex="1" parent="1">
          <mxGeometry x="-80" y="400" width="160" height="120" as="geometry" />
        </mxCell>
        <mxCell id="N91jm53emRYmfFJ_UL-y-6" value="&lt;div&gt;Untergruppe 1.1.1.1&lt;/div&gt;&lt;div&gt;Gemeinde/Dorf&lt;br&gt;&lt;/div&gt;" style="ellipse;whiteSpace=wrap;html=1;fillColor=#e1d5e7;strokeColor=#9673a6;" vertex="1" parent="1">
          <mxGeometry x="-240" y="520" width="160" height="120" as="geometry" />
        </mxCell>
        <mxCell id="N91jm53emRYmfFJ_UL-y-7" value="&lt;div&gt;Untergruppe 1.1.2&lt;/div&gt;&lt;div&gt;Bezirk&lt;br&gt;&lt;/div&gt;" style="ellipse;whiteSpace=wrap;html=1;fillColor=#fff2cc;strokeColor=#d6b656;" vertex="1" parent="1">
          <mxGeometry x="240" y="400" width="160" height="120" as="geometry" />
        </mxCell>
        <mxCell id="N91jm53emRYmfFJ_UL-y-8" value="&lt;div&gt;Untergruppe 1.2&lt;/div&gt;&lt;div&gt;Salzburg&lt;br&gt;&lt;/div&gt;" style="ellipse;whiteSpace=wrap;html=1;fillColor=#d5e8d4;strokeColor=#82b366;" vertex="1" parent="1">
          <mxGeometry x="400" y="280" width="160" height="120" as="geometry" />
        </mxCell>
        <mxCell id="N91jm53emRYmfFJ_UL-y-9" value="&lt;div&gt;Untergruppe 1.1.1.2&lt;/div&gt;&lt;div&gt;Gemeinde&lt;br&gt;Watcher&lt;br&gt;&lt;/div&gt;" style="ellipse;whiteSpace=wrap;html=1;fillColor=#e1d5e7;strokeColor=#9673a6;" vertex="1" parent="1">
          <mxGeometry x="80" y="520" width="160" height="120" as="geometry" />
        </mxCell>
        <mxCell id="N91jm53emRYmfFJ_UL-y-14" style="edgeStyle=orthogonalEdgeStyle;rounded=0;orthogonalLoop=1;jettySize=auto;html=1;entryX=1;entryY=0.5;entryDx=0;entryDy=0;" edge="1" parent="1" source="N91jm53emRYmfFJ_UL-y-11" target="N91jm53emRYmfFJ_UL-y-1">
          <mxGeometry relative="1" as="geometry" />
        </mxCell>
        <mxCell id="N91jm53emRYmfFJ_UL-y-15" style="edgeStyle=orthogonalEdgeStyle;rounded=0;orthogonalLoop=1;jettySize=auto;html=1;entryX=0;entryY=0.5;entryDx=0;entryDy=0;" edge="1" parent="1" source="N91jm53emRYmfFJ_UL-y-11" target="N91jm53emRYmfFJ_UL-y-2">
          <mxGeometry relative="1" as="geometry" />
        </mxCell>
        <mxCell id="N91jm53emRYmfFJ_UL-y-11" value="&lt;b&gt;Eviden&lt;/b&gt;, entscheidet über Gruppen, deren Attribute wie Speicherplatz" style="ellipse;whiteSpace=wrap;html=1;fillColor=#f8cecc;strokeColor=#b85450;" vertex="1" parent="1">
          <mxGeometry x="400" y="40" width="160" height="120" as="geometry" />
        </mxCell>
        <mxCell id="N91jm53emRYmfFJ_UL-y-22" value="&lt;b&gt;Schema sollte sich Organisation sebst aussuchen&lt;/b&gt;. Diese werden als vorkonfigurierte Templates in einer Datenbank gefunden, können aber auch selbst angelegt werden. Management wäre angedacht für Unternehmen an sich. Ist das die Aufgabe von Eviden?" style="rounded=0;whiteSpace=wrap;html=1;fillColor=#f5f5f5;strokeColor=#666666;fontColor=#333333;" vertex="1" parent="1">
          <mxGeometry x="-520" y="180" width="230" height="130" as="geometry" />
        </mxCell>
        <mxCell id="N91jm53emRYmfFJ_UL-y-24" value="&lt;div style=&quot;font-size: 14px;&quot;&gt;&lt;font style=&quot;font-size: 14px;&quot;&gt;&lt;b&gt;Squads&lt;/b&gt;&lt;br&gt;sind kruzfristige Einsatzteams, haben einzelne User, diese können sich gegenseitig&amp;nbsp; per GPS sehen&lt;br&gt;&lt;/font&gt;&lt;/div&gt;" style="ellipse;whiteSpace=wrap;html=1;fillColor=#e3c800;strokeColor=#B09500;fontColor=#000000;" vertex="1" parent="1">
          <mxGeometry x="440" y="530" width="200" height="140" as="geometry" />
        </mxCell>
        <mxCell id="N91jm53emRYmfFJ_UL-y-26" value="&lt;b&gt;Pro Gruppe gibt es drei Rollen:&lt;/b&gt;&lt;br&gt;&lt;div align=&quot;left&quot;&gt;- &lt;b&gt;Admin &lt;/b&gt;erstellt Untergruppen (Squads um Einsätze zu managen [Gruppenbeitritsanfragen werden von ihm gemanaged])&lt;br&gt;&lt;/div&gt;&lt;div align=&quot;left&quot;&gt;- &lt;b&gt;Squad Leiter&lt;/b&gt; (Kann Squads erstellen in Gruppe, und Mitglieder der Gruppe managen [kann Personen im Einsatz hinzufügen ])&lt;/div&gt;&lt;div align=&quot;left&quot;&gt;- &lt;b&gt;Person im Einsatz&lt;/b&gt;&lt;br&gt;&lt;/div&gt;" style="rounded=0;whiteSpace=wrap;html=1;fillColor=#f5f5f5;strokeColor=#666666;fontColor=#333333;" vertex="1" parent="1">
          <mxGeometry x="-520" y="360" width="410" height="110" as="geometry" />
        </mxCell>
      </root>
    </mxGraphModel>
  </diagram>
</mxfile>
